<mxfile host="Electron" agent="Mozilla/5.0 (Windows NT 10.0; Win64; x64) AppleWebKit/537.36 (KHTML, like Gecko) draw.io/26.0.16 Chrome/132.0.6834.196 Electron/34.2.0 Safari/537.36" version="26.0.16">
  <diagram id="C5RBs43oDa-KdzZeNtuy" name="Page-1">
    <mxGraphModel dx="1098" dy="820" grid="1" gridSize="10" guides="1" tooltips="1" connect="1" arrows="1" fold="1" page="1" pageScale="1" pageWidth="827" pageHeight="1169" math="0" shadow="0">
      <root>
        <mxCell id="WIyWlLk6GJQsqaUBKTNV-0" />
        <mxCell id="WIyWlLk6GJQsqaUBKTNV-1" parent="WIyWlLk6GJQsqaUBKTNV-0" />
        <mxCell id="laJH2tVFj_misxl00rSV-3" value="" style="edgeStyle=orthogonalEdgeStyle;rounded=0;orthogonalLoop=1;jettySize=auto;html=1;" edge="1" parent="WIyWlLk6GJQsqaUBKTNV-1" source="laJH2tVFj_misxl00rSV-0" target="laJH2tVFj_misxl00rSV-2">
          <mxGeometry relative="1" as="geometry" />
        </mxCell>
        <mxCell id="laJH2tVFj_misxl00rSV-0" value="" style="ellipse;whiteSpace=wrap;html=1;aspect=fixed;" vertex="1" parent="WIyWlLk6GJQsqaUBKTNV-1">
          <mxGeometry x="334" y="80" width="40" height="40" as="geometry" />
        </mxCell>
        <mxCell id="laJH2tVFj_misxl00rSV-1" value="Start" style="text;html=1;align=center;verticalAlign=middle;whiteSpace=wrap;rounded=0;" vertex="1" parent="WIyWlLk6GJQsqaUBKTNV-1">
          <mxGeometry x="324" y="50" width="60" height="30" as="geometry" />
        </mxCell>
        <mxCell id="laJH2tVFj_misxl00rSV-5" value="" style="edgeStyle=orthogonalEdgeStyle;rounded=0;orthogonalLoop=1;jettySize=auto;html=1;" edge="1" parent="WIyWlLk6GJQsqaUBKTNV-1" source="laJH2tVFj_misxl00rSV-2" target="laJH2tVFj_misxl00rSV-4">
          <mxGeometry relative="1" as="geometry" />
        </mxCell>
        <mxCell id="laJH2tVFj_misxl00rSV-2" value="Define NN Structure" style="rounded=1;whiteSpace=wrap;html=1;" vertex="1" parent="WIyWlLk6GJQsqaUBKTNV-1">
          <mxGeometry x="294" y="180" width="120" height="60" as="geometry" />
        </mxCell>
        <mxCell id="laJH2tVFj_misxl00rSV-7" value="" style="edgeStyle=orthogonalEdgeStyle;rounded=0;orthogonalLoop=1;jettySize=auto;html=1;" edge="1" parent="WIyWlLk6GJQsqaUBKTNV-1" source="laJH2tVFj_misxl00rSV-4" target="laJH2tVFj_misxl00rSV-6">
          <mxGeometry relative="1" as="geometry" />
        </mxCell>
        <mxCell id="laJH2tVFj_misxl00rSV-4" value="Initialize Weights" style="rounded=1;whiteSpace=wrap;html=1;" vertex="1" parent="WIyWlLk6GJQsqaUBKTNV-1">
          <mxGeometry x="294" y="300" width="120" height="60" as="geometry" />
        </mxCell>
        <mxCell id="laJH2tVFj_misxl00rSV-9" value="" style="edgeStyle=orthogonalEdgeStyle;rounded=0;orthogonalLoop=1;jettySize=auto;html=1;" edge="1" parent="WIyWlLk6GJQsqaUBKTNV-1" source="laJH2tVFj_misxl00rSV-6" target="laJH2tVFj_misxl00rSV-8">
          <mxGeometry relative="1" as="geometry" />
        </mxCell>
        <mxCell id="laJH2tVFj_misxl00rSV-6" value="Forward Propagation" style="rounded=1;whiteSpace=wrap;html=1;" vertex="1" parent="WIyWlLk6GJQsqaUBKTNV-1">
          <mxGeometry x="294" y="420" width="120" height="60" as="geometry" />
        </mxCell>
        <mxCell id="laJH2tVFj_misxl00rSV-11" value="" style="edgeStyle=orthogonalEdgeStyle;rounded=0;orthogonalLoop=1;jettySize=auto;html=1;" edge="1" parent="WIyWlLk6GJQsqaUBKTNV-1" source="laJH2tVFj_misxl00rSV-8" target="laJH2tVFj_misxl00rSV-10">
          <mxGeometry relative="1" as="geometry" />
        </mxCell>
        <mxCell id="laJH2tVFj_misxl00rSV-8" value="Back Propagation" style="rounded=1;whiteSpace=wrap;html=1;" vertex="1" parent="WIyWlLk6GJQsqaUBKTNV-1">
          <mxGeometry x="294" y="540" width="120" height="60" as="geometry" />
        </mxCell>
        <mxCell id="laJH2tVFj_misxl00rSV-17" value="" style="edgeStyle=orthogonalEdgeStyle;rounded=0;orthogonalLoop=1;jettySize=auto;html=1;" edge="1" parent="WIyWlLk6GJQsqaUBKTNV-1" source="laJH2tVFj_misxl00rSV-10" target="laJH2tVFj_misxl00rSV-16">
          <mxGeometry relative="1" as="geometry" />
        </mxCell>
        <mxCell id="laJH2tVFj_misxl00rSV-10" value="Weight Update" style="rounded=1;whiteSpace=wrap;html=1;" vertex="1" parent="WIyWlLk6GJQsqaUBKTNV-1">
          <mxGeometry x="294" y="660" width="120" height="60" as="geometry" />
        </mxCell>
        <mxCell id="laJH2tVFj_misxl00rSV-14" style="edgeStyle=orthogonalEdgeStyle;rounded=0;orthogonalLoop=1;jettySize=auto;html=1;entryX=-0.017;entryY=0.367;entryDx=0;entryDy=0;entryPerimeter=0;" edge="1" parent="WIyWlLk6GJQsqaUBKTNV-1" source="laJH2tVFj_misxl00rSV-12" target="laJH2tVFj_misxl00rSV-6">
          <mxGeometry relative="1" as="geometry">
            <mxPoint x="194" y="440" as="targetPoint" />
            <Array as="points">
              <mxPoint x="194" y="1015" />
              <mxPoint x="194" y="442" />
            </Array>
          </mxGeometry>
        </mxCell>
        <mxCell id="laJH2tVFj_misxl00rSV-12" value="" style="strokeWidth=2;html=1;shape=mxgraph.flowchart.decision;whiteSpace=wrap;" vertex="1" parent="WIyWlLk6GJQsqaUBKTNV-1">
          <mxGeometry x="319" y="980" width="70" height="70" as="geometry" />
        </mxCell>
        <mxCell id="laJH2tVFj_misxl00rSV-15" value="epochs not Completed" style="text;html=1;align=center;verticalAlign=middle;whiteSpace=wrap;rounded=0;" vertex="1" parent="WIyWlLk6GJQsqaUBKTNV-1">
          <mxGeometry x="214" y="970" width="90" height="30" as="geometry" />
        </mxCell>
        <mxCell id="laJH2tVFj_misxl00rSV-19" value="" style="edgeStyle=orthogonalEdgeStyle;rounded=0;orthogonalLoop=1;jettySize=auto;html=1;" edge="1" parent="WIyWlLk6GJQsqaUBKTNV-1" source="laJH2tVFj_misxl00rSV-16" target="laJH2tVFj_misxl00rSV-18">
          <mxGeometry relative="1" as="geometry" />
        </mxCell>
        <mxCell id="laJH2tVFj_misxl00rSV-16" value="Output classification" style="rounded=1;whiteSpace=wrap;html=1;" vertex="1" parent="WIyWlLk6GJQsqaUBKTNV-1">
          <mxGeometry x="294" y="780" width="120" height="60" as="geometry" />
        </mxCell>
        <mxCell id="laJH2tVFj_misxl00rSV-20" value="" style="edgeStyle=orthogonalEdgeStyle;rounded=0;orthogonalLoop=1;jettySize=auto;html=1;" edge="1" parent="WIyWlLk6GJQsqaUBKTNV-1" source="laJH2tVFj_misxl00rSV-18" target="laJH2tVFj_misxl00rSV-12">
          <mxGeometry relative="1" as="geometry" />
        </mxCell>
        <mxCell id="laJH2tVFj_misxl00rSV-18" value="Testing" style="rounded=1;whiteSpace=wrap;html=1;" vertex="1" parent="WIyWlLk6GJQsqaUBKTNV-1">
          <mxGeometry x="294" y="880" width="120" height="60" as="geometry" />
        </mxCell>
        <mxCell id="laJH2tVFj_misxl00rSV-23" value="Training" style="shape=umlFrame;whiteSpace=wrap;html=1;pointerEvents=0;flipV=1;flipH=0;direction=west;width=150;height=30;" vertex="1" parent="WIyWlLk6GJQsqaUBKTNV-1">
          <mxGeometry x="144" y="410" width="540" height="550" as="geometry" />
        </mxCell>
      </root>
    </mxGraphModel>
  </diagram>
</mxfile>
